<svg height='100px' width='100px' fill="#FFFFFF" 
    xmlns:dc="http://purl.org/dc/elements/1.1/" 
    xmlns:cc="http://creativecommons.org/ns#" 
    xmlns:rdf="http://www.w3.org/1999/02/22-rdf-syntax-ns#" 
    xmlns:svg="http://www.w3.org/2000/svg" 
    xmlns="http://www.w3.org/2000/svg" 
    xmlns:sodipodi="http://sodipodi.sourceforge.net/DTD/sodipodi-0.dtd" 
    xmlns:inkscape="http://www.inkscape.org/namespaces/inkscape" version="1.1" x="0px" y="0px" viewBox="0 0 100 100">
    <g transform="translate(0,-952.36218)">
        <path style="text-indent:0;text-transform:none;direction:ltr;block-progression:tb;baseline-shift:baseline;color:#000000;enable-background:accumulate;" d="m 44.243945,958.37061 a 2.000005,2.000005 0 0 0 -1.80272,1.99248 l 0,35.45351 -34.4414202,0 a 2.000005,2.000005 0 0 0 -1.9924799,1.9925 l 0,10.1205 a 2.000005,2.000005 0 0 0 1.9924799,1.9925 l 34.4414202,0 0,34.4414 a 2.000005,2.000005 0 0 0 1.99248,1.9925 l 11.13259,0 a 2.000005,2.000005 0 0 0 1.99247,-1.9925 l 0,-34.4414 34.44143,0 a 2.000005,2.000005 0 0 0 1.99248,-1.9925 l 0,-10.1205 a 2.000005,2.000005 0 0 0 -1.99248,-1.9925 l -34.44143,0 0,-35.45351 a 2.000005,2.000005 0 0 0 -1.99247,-1.99248 l -11.13259,0 a 2.000005,2.000005 0 0 0 -0.18976,0 z" fill="#000000" fill-opacity="1" fill-rule="evenodd" stroke="none" marker="none" visibility="visible" display="inline" overflow="visible"></path>
    </g>
</svg>